<mxfile host="app.diagrams.net" modified="2022-08-14T11:05:04.269Z" agent="5.0 (X11; Linux x86_64) AppleWebKit/537.36 (KHTML, like Gecko) Chrome/104.0.0.0 Safari/537.36" etag="0UDNgXX8va5GkzfdSHpZ" version="20.2.3" type="github">
  <diagram id="G8fYv1YC_0JXICmWkKVw" name="PÃ¡gina-1">
    <mxGraphModel dx="2249" dy="920" grid="1" gridSize="10" guides="1" tooltips="1" connect="1" arrows="1" fold="1" page="1" pageScale="1" pageWidth="827" pageHeight="1169" math="0" shadow="0">
      <root>
        <mxCell id="0" />
        <mxCell id="1" parent="0" />
        <mxCell id="TZ4amy2bJ5c9_KIvq1eh-1" value="Google Cloud" style="ellipse;shape=cloud;whiteSpace=wrap;html=1;" vertex="1" parent="1">
          <mxGeometry x="-210" y="60" width="820" height="480" as="geometry" />
        </mxCell>
        <mxCell id="TZ4amy2bJ5c9_KIvq1eh-3" value="Server Api-java" style="image;html=1;image=img/lib/clip_art/computers/Server_Rack_128x128.png" vertex="1" parent="1">
          <mxGeometry x="-20" y="210" width="130" height="160" as="geometry" />
        </mxCell>
        <mxCell id="TZ4amy2bJ5c9_KIvq1eh-4" value="Database Api-java" style="image;html=1;image=img/lib/clip_art/computers/Database_128x128.png" vertex="1" parent="1">
          <mxGeometry x="290" y="220" width="140" height="120" as="geometry" />
        </mxCell>
      </root>
    </mxGraphModel>
  </diagram>
</mxfile>
